/* XPM */
static char *_b7e7f581e0a42faeb628db2f015db6a2xnAMEMh9s5ZWIY8[] = {
/* columns rows colors chars-per-pixel */
"64 64 173 2 ",
"   c None",
".  c #232E5E",
"X  c #292F64",
"o  c #2E2E6B",
"O  c #2B3067",
"+  c #2D3069",
"@  c #34346E",
"#  c #363B6C",
"$  c #2D2772",
"%  c #332E73",
"&  c #352D7A",
"*  c #382F7C",
"=  c #373172",
"-  c #3B3675",
";  c #3C3975",
":  c #3B317E",
">  c #3F3A7C",
",  c #40307E",
"<  c #443B7B",
"1  c #3E4474",
"2  c #404575",
"3  c #444977",
"4  c #45447A",
"5  c #4A457E",
"6  c #454A79",
"7  c #4B4E7E",
"8  c #4D537F",
"9  c #50547E",
"0  c #3C3082",
"q  c #402E87",
"w  c #452D89",
"e  c #433585",
"r  c #453D84",
"t  c #483F87",
"y  c #47328B",
"u  c #4C318D",
"i  c #473A88",
"p  c #4A3C8B",
"a  c #5A328F",
"s  c #593B8A",
"d  c #4F3F90",
"f  c #5C3490",
"g  c #5E3D94",
"h  c #633693",
"j  c #623D93",
"k  c #6B3C94",
"l  c #464281",
"z  c #4A4584",
"x  c #4D4883",
"c  c #4F438D",
"v  c #50468D",
"b  c #544D8E",
"n  c #4F5181",
"m  c #525683",
"M  c #545984",
"N  c #585D87",
"B  c #595689",
"V  c #5C5B8B",
"C  c #544294",
"Z  c #594497",
"A  c #554B90",
"S  c #5A4F94",
"D  c #5E4799",
"F  c #5D4B99",
"G  c #5C5294",
"H  c #605C8F",
"J  c #634397",
"K  c #62479A",
"L  c #6D459A",
"P  c #634C9C",
"I  c #6C4C9D",
"U  c #73479C",
"Y  c #734C9D",
"T  c #794E9E",
"R  c #605697",
"E  c #605A93",
"W  c #64549D",
"Q  c #68529F",
"!  c #665A9D",
"~  c #685A9F",
"^  c #72519E",
"/  c #7A509E",
"(  c #5B6186",
")  c #5F618C",
"_  c #61638E",
"`  c #646A8F",
"'  c #656293",
"]  c #656991",
"[  c #6A6C94",
"{  c #6B669B",
"}  c #716E9D",
"|  c #6D7295",
" . c #707596",
".. c #72739B",
"X. c #79769F",
"o. c #74799B",
"O. c #7A7F9F",
"+. c #6C56A2",
"@. c #6B5DA2",
"#. c #7555A1",
"$. c #7A53A2",
"%. c #7459A3",
"&. c #7C5CA5",
"*. c #6D60A2",
"=. c #7263A6",
"-. c #7269A2",
";. c #7763A9",
":. c #7A66AA",
">. c #7D6CAC",
",. c #7571A3",
"<. c #7A76A5",
"1. c #7E7AA4",
"2. c #7E74AC",
"3. c #7F7BA9",
"4. c #8157A3",
"5. c #815BA5",
"6. c #835FA8",
"7. c #8562A9",
"8. c #8A65AB",
"9. c #836CAE",
"0. c #8B6BAE",
"q. c #827EA7",
"w. c #8175AF",
"e. c #817CAA",
"r. c #8F6CB0",
"t. c #926EB0",
"y. c #8571B1",
"u. c #8E72B1",
"i. c #857AB3",
"p. c #8C7AB6",
"a. c #9473B3",
"s. c #9977B4",
"d. c #9379B5",
"f. c #9979B6",
"g. c #927FB8",
"h. c #9A7EB9",
"j. c #7C809F",
"k. c #8184A3",
"l. c #8589A6",
"z. c #8682AE",
"x. c #8A8DA9",
"c. c #8D91AC",
"v. c #8883B1",
"b. c #8E81B8",
"n. c #908CB3",
"m. c #9382BA",
"M. c #9C83BB",
"N. c #968FBB",
"B. c #9C8ABE",
"V. c #9393B1",
"C. c #9698B4",
"Z. c #999CB5",
"A. c #9790BB",
"S. c #9A94BD",
"D. c #9C9ABB",
"F. c #A184BC",
"G. c #A289BE",
"H. c #A88BBF",
"J. c #A09DBF",
"K. c #A0A2BA",
"L. c #9C8EC0",
"P. c #9D93C1",
"I. c #A38DC1",
"U. c #AA8FC2",
"Y. c #A692C3",
"T. c #AB93C4",
"R. c #A39CC3",
"E. c #A79CC8",
"W. c #A99EC9",
"Q. c #B197C7",
"!. c #B39BC9",
"~. c #A8A2C7",
"^. c #ABA1CA",
/* pixels */
"                                                                                                                                ",
"                                                                                                                                ",
"                                                                                                                                ",
"                                                                                                                                ",
"                                w &   U                                             H <.q...3                                   ",
"                              f u & - %.&.6.%.j                                 q.D.q.' B ] C.o.                                ",
"                            k f y * X       j %.%.                          ,.J.{             x.|                               ",
"                              f u * o           g %.K                   r S.e.                  Z.                              ",
"                            5.$.w *                 P Q               R ^.S                     ]  .                            ",
"                            t.                        Z +.          -.R.                        1 x.                            ",
"                            a.                            W       2.S.                            c.                            ",
"                            a.                              F 0 y.N.                              c.                            ",
"                            a.                                F 2.                                x.                            ",
"                            a.                              =.w.i                                 x.                            ",
"                            s.                            P W.    c                               x.                            ",
"                            s.                            ^.C     e i                             l.                            ",
"                            s.                          E.W         e e                           k.                            ",
"                            a.                        m.y.            e :                       8 o.                            ",
"                            0.5.                    %.L.                :                       ` (                             ",
"                            4.t.                    Y.                    &                     j.2                             ",
"                              M.              K D :.>.+.@.@.@.~ ! W G G A v z                   l.                              ",
"                              0.Y &.:.9.y.9.:.%.y.=.Z F C d       p p c v v A b A S b z l >   6 |                               ",
"                        #.0.d.u.9.#.J           Y.                            %         < l z x 5 -                             ",
"                  $.a.m.0.Y   U r.            m.&.                            & =             [ ; ; < ; @                       ",
"              0.M.a.Y           G.          ^ B.                                %             o.        @ @ @                   ",
"          0.I.8.                a.&.        Y.J                                   %         _ m               + O               ",
"        U.s.                    T s.      7.d.                                    %         o.                    X X           ",
"    T Q.$.                        G.      Y.                                        %     4 ]                       X X         ",
"    Q.U                           8.r.  r.0.                                        -     ' 2                         . O       ",
"  F.7.                              I.j Y.                                            5   [                             : :     ",
"  U.                                u.M.&.                                            5 V 4                           h u 0 %   ",
"4.F.                                  M.                                                B                             h u : % X ",
"T H.                                L T.Y                                             - '                             h u 0 %   ",
"  T.T                               F.&.M.                                            x 4 V                             u 0 %   ",
"  5.Q.                            $.h.  M.^                                         - ;   [                           # #       ",
"    a.T.                          s.$.  Y G.                                        =     B M                       1 6         ",
"      8.!.$.                      G.      h.&.                                    % %       o.                    M 8           ",
"        U T.H.L                 8.0.        Y.                                    =         | 1               n ] 1             ",
"            6.T.G.&.            h.          y.0.                                %           x [           V } M                 ",
"                T M.Q.m.&.      h.            E.                                %             [     H <...m                     ",
"                      6.m.T.G.d.0.            Q B.                            $           z ' 3.q.3.H                           ",
"                            I f.m.I.I.B.g.y.;.I m.P                         A E -.<.e.z.z.3.] V N                               ",
"                              f.        #.>.p.m.m.Y.P.P.P.P.P.P.P.P.S.S.N.n.v.3.-.R z           k.                              ",
"                            T s.                  K p.                    %                     k.                              ",
"                            8.8.                    B.;.                : *                      .8                             ",
"                            t.$.                      W.Z             0 :                       N [                             ",
"                            s.                        P E.            e                         3 j.                            ",
"                            s.                          ;.L.        i                             l.                            ",
"                            s.                            b.i.    p                               x.                            ",
"                            a.                              P.;.y p                               x.                            ",
"                            a.                                E.*.                                x.                            ",
"                            a.                              d c R.W                               x.                            ",
"                            a.                            F Z     ~.!                             c.                            ",
"                            a.                          P C         R.-.                          c.                            ",
"                            8.$.                      +.C             S.z.                      m j.                            ",
"                              L w * o             K %.                  e.S.l                   l.m                             ",
"                              a y * o         j %.I                       b ~.,.              n C.                              ",
"                              f y * o s   I &.%.                              <.D...l       ' K.#                               ",
"                              f y & < 7.&.Y                                       } V.V.x.V.k.                                  ",
"                                                                                                                                ",
"                                                                                                                                ",
"                                                                                                                                ",
"                                                                                                                                ",
"                                                                                                                                "
};
