/* XPM */
static char *b33e2930ce974ee3d521ed99afe63958Wn6yKlO6z9bZ6HoM[] = {
/* columns rows colors chars-per-pixel */
"32 32 144 2 ",
"   c None",
".  c #242E61",
"X  c #302E6E",
"o  c #2C3068",
"O  c #2F3169",
"+  c #322D73",
"@  c #362C7B",
"#  c #392E7D",
"$  c #353072",
"%  c #393774",
"&  c #3F3978",
"*  c #403C78",
"=  c #3B4272",
"-  c #3D4475",
";  c #47467F",
":  c #464B7B",
">  c #474B7B",
",  c #4A497E",
"<  c #4B4E7F",
"1  c #4C527C",
"2  c #4C527D",
"3  c #4D527D",
"4  c #52587E",
"5  c #412E84",
"6  c #432F86",
"7  c #413583",
"8  c #423584",
"9  c #453E82",
"0  c #4C318A",
"q  c #4F328C",
"w  c #4A388E",
"e  c #4A398E",
"r  c #593F96",
"t  c #5A3F96",
"y  c #6A3B94",
"u  c #6A3C94",
"i  c #4B4187",
"p  c #4F4982",
"a  c #4D4E80",
"s  c #4E448C",
"d  c #524F84",
"f  c #52448F",
"g  c #59408B",
"h  c #524C8B",
"j  c #4E5280",
"k  c #545084",
"l  c #56518B",
"z  c #56528C",
"x  c #5B5F8A",
"c  c #5C5F8B",
"v  c #5E5C8D",
"b  c #554893",
"n  c #584995",
"m  c #5A4997",
"M  c #594998",
"N  c #575090",
"B  c #625E8F",
"V  c #62479A",
"C  c #644598",
"Z  c #644699",
"A  c #61499B",
"S  c #6E489B",
"D  c #6E489C",
"F  c #6F4D9C",
"G  c #764A9D",
"H  c #615F92",
"J  c #60509B",
"K  c #61539B",
"L  c #605598",
"P  c #615798",
"I  c #615699",
"U  c #625799",
"Y  c #63569C",
"T  c #64579C",
"R  c #655D99",
"E  c #5F648B",
"W  c #60658B",
"Q  c #60658C",
"!  c #63678E",
"~  c #646093",
"^  c #666A90",
"/  c #6A619E",
"(  c #6D679D",
")  c #6D689D",
"_  c #6C7194",
"`  c #75799B",
"'  c #757A9B",
"]  c #6C54A2",
"[  c #6D59A3",
"{  c #6C5AA3",
"}  c #6A5EA0",
"|  c #6E59A4",
" . c #7756A2",
".. c #7F56A3",
"X. c #795BA4",
"o. c #7F5BA6",
"O. c #795DA4",
"+. c #7D5FA6",
"@. c #6C60A0",
"#. c #6E61A2",
"$. c #6F62A4",
"%. c #6F63A6",
"&. c #6E68A0",
"*. c #7068A0",
"=. c #7661A8",
"-. c #7862A8",
";. c #7E60A8",
":. c #7F67AB",
">. c #7669A9",
",. c #776AAA",
"<. c #7B68AB",
"1. c #8057A3",
"2. c #815BA6",
"3. c #835BA6",
"4. c #805DA6",
"5. c #835CA7",
"6. c #845EA7",
"7. c #835DA8",
"8. c #8162A8",
"9. c #8263A9",
"0. c #8560A9",
"q. c #8461A9",
"w. c #8763AA",
"e. c #8164A9",
"r. c #8765AC",
"t. c #8068AC",
"y. c #8B6BAE",
"u. c #8C6AAF",
"i. c #8B6EAF",
"p. c #8C6CAF",
"a. c #916BAF",
"s. c #916CAF",
"d. c #926FAF",
"f. c #916DB0",
"g. c #8271B0",
"h. c #8273B1",
"j. c #8D71B1",
"k. c #8E71B1",
"l. c #9370B1",
"z. c #9471B1",
"x. c #9472B3",
"c. c #9573B3",
"v. c #A284BB",
"b. c #A284BC",
/* pixels */
"                                                                ",
"                                                                ",
"                5 g D                   l ~ B x                 ",
"              y 6 o     Z             )         E               ",
"              a.          t       U *.          '               ",
"              5.              w Y U             3               ",
"              G               n K                 4             ",
"              ..              ,.                3               ",
"              z.            g.    7             ^               ",
"              v.          -.        #           _               ",
"              w.    A A | { M n b f s i         !               ",
"             .F 9.      t.                    p *               ",
"      5.o.      7.    e.                +     j       o         ",
"    w.                O.                      :           .     ",
"  f.                k.                    *                 $   ",
"z.                p.                        k               q X ",
"d.                y.                        k               0 X ",
"  l.                k.                    &                 %   ",
"    u.                O.                      :         - =     ",
"      w.r.      2.    9.                      a     , a         ",
"            ;.;.i.      :.              9   h ~ v p             ",
"              7.    ] | <.g.%.$.@.@./ R N       W               ",
"              b.          =.        @           _               ",
"              z.            g.    8             ^               ",
"              1.              ,.                3               ",
"              G               J }                 4             ",
"              2.              w T U             3               ",
"              d.          m       U &.          '               ",
"              u 5 o     Z             (         !               ",
"                5 g D                   z ~ B c                 ",
"                                                                ",
"                                                                "
};
