/* XPM */
static char *_4902bf4abbf49b89adb452129b306b4XUtaiq4bAe1CCtBs[] = {
/* columns rows colors chars-per-pixel */
"16 16 11 1 ",
"  c None",
". c #43437B",
"X c #443081",
"o c #463283",
"O c #533489",
"+ c #505084",
"@ c #6A4F9E",
"# c #74519F",
"$ c #6F58A2",
"% c #7955A3",
"& c #7A57A3",
/* pixels */
"                ",
"    X           ",
"                ",
"                ",
"                ",
"    # @    .    ",
"                ",
"     &        O ",
"                ",
"    & $    +    ",
"                ",
"                ",
"                ",
"    X           ",
"                ",
"                "
};
